<?xml version="1.0" encoding="UTF-8" standalone="no"?>
<!-- Created with Inkscape (http://www.inkscape.org/) -->

<svg
   xmlns:dc="http://purl.org/dc/elements/1.1/"
   xmlns:cc="http://creativecommons.org/ns#"
   xmlns:rdf="http://www.w3.org/1999/02/22-rdf-syntax-ns#"
   xmlns:svg="http://www.w3.org/2000/svg"
   xmlns="http://www.w3.org/2000/svg"
   xmlns:sodipodi="http://sodipodi.sourceforge.net/DTD/sodipodi-0.dtd"
   xmlns:inkscape="http://www.inkscape.org/namespaces/inkscape"
   id="svg2"
   version="1.1"
   inkscape:version="0.91 r13725"
   xml:space="preserve"
   width="950"
   height="137.5"
   viewBox="0 0 950 137.5"
   sodipodi:docname="LOGO_OUISHARE_FEST_BCN_2015_HOR-white.svg"><metadata
     id="metadata8"><rdf:RDF><cc:Work
         rdf:about=""><dc:format>image/svg+xml</dc:format><dc:type
           rdf:resource="http://purl.org/dc/dcmitype/StillImage" /><dc:title></dc:title></cc:Work></rdf:RDF></metadata><defs
     id="defs6"><clipPath
       clipPathUnits="userSpaceOnUse"
       id="clipPath20"><path
         d="M 0,110 700,110 700,0 0,0 0,110 Z"
         id="path22"
         inkscape:connector-curvature="0" /></clipPath></defs><sodipodi:namedview
     pagecolor="#ffffff"
     bordercolor="#666666"
     borderopacity="1"
     objecttolerance="10"
     gridtolerance="10"
     guidetolerance="10"
     inkscape:pageopacity="0"
     inkscape:pageshadow="2"
     inkscape:window-width="1514"
     inkscape:window-height="907"
     id="namedview4"
     showgrid="false"
     inkscape:zoom="0.70710678"
     inkscape:cx="457.8278"
     inkscape:cy="333.54967"
     inkscape:window-x="120"
     inkscape:window-y="19"
     inkscape:window-maximized="0"
     inkscape:current-layer="g4322"
     showguides="true"
     inkscape:guide-bbox="true"><sodipodi:guide
       position="607,88"
       orientation="0,1"
       id="guide3518" /><sodipodi:guide
       position="575,50"
       orientation="0,1"
       id="guide3520" /></sodipodi:namedview><g
     id="g10"
     inkscape:groupmode="layer"
     inkscape:label="Copy of LOGO_OUISHARE_FEST_2015-SMALL-RGB(1)"
     transform="matrix(1.25,0,0,-1.25,0,137.5)"><g
       id="g4322"><path
         inkscape:connector-curvature="0"
         id="path12"
         style="fill:#ffffff;fill-opacity:1;fill-rule:nonzero;stroke:none"
         d="m 321.064,28.847 6.213,0 0,51.58 -6.213,0 0,-51.58 z" /><path
         inkscape:connector-curvature="0"
         id="path14"
         style="fill:#ffffff;fill-opacity:1;fill-rule:nonzero;stroke:none"
         d="m 721.682,28.514 6.213,0 0,51.58 -6.213,0 0,-51.58 z" /><path
         d="m 50.146,57.877 0,3.825 c 0,3.989 2.982,6.012 5.963,6.012 2.929,0 5.857,-2.023 5.857,-6.012 l 0,-3.825 2.44,0 0,3.825 c 0,5.628 -4.175,8.471 -8.297,8.471 -4.228,0 -8.403,-2.843 -8.403,-8.471 l 0,-3.825 2.44,0 z m 11.82,-3.552 0,-4.862 c 0,-3.936 -2.982,-5.956 -5.965,-5.956 -2.927,0 -5.855,1.967 -5.855,5.956 l 0,4.862 -2.44,0 0,-4.862 c 0,-5.63 4.12,-8.415 8.295,-8.415 4.176,0 8.405,2.841 8.405,8.415 l 0,4.862 -2.44,0 z m 7.646,3.552 0,3.825 c 0,7.705 -5.694,13.825 -13.394,13.825 -7.699,0 -13.718,-5.956 -13.718,-13.825 l 0,-3.825 2.44,0 0,3.825 c 0,6.448 4.934,11.366 11.278,11.366 6.291,0 10.953,-5.027 10.953,-11.366 l 0,-3.825 2.441,0 z M 42.5,49.571 c 0,-7.869 5.532,-13.825 13.284,-13.825 7.646,0 13.828,6.12 13.828,13.825 l 0,4.754 -2.441,0 0,-4.754 c 0,-6.338 -5.096,-11.366 -11.387,-11.366 -6.344,0 -10.844,4.918 -10.844,11.366 l 0,4.754 -2.44,0 0,-4.754 z"
         style="fill:#ffffff;fill-opacity:1;fill-rule:nonzero;stroke:none"
         id="path26"
         inkscape:connector-curvature="0" /><path
         d="m 94.5693,53.5605 0,-4.48 c 0,-4.646 -3.579,-6.284 -5.801,-6.284 -0.652,0 -6.183,0.162 -6.183,6.284 l 0,4.48 -2.439,0 0,-4.48 c 0,-8.525 7.699,-8.744 8.622,-8.744 3.144,0 8.241,2.296 8.241,8.744 l 0,4.48 -2.44,0 z m -11.984,3.552 0,13.934 c 0,2.131 -1.626,3.88 -3.578,3.88 -2.006,0 -3.579,-1.749 -3.579,-3.88 l 0,-13.934 2.441,0 0,13.934 c 0,0.765 0.487,1.421 1.138,1.421 0.597,0 1.139,-0.656 1.139,-1.421 l 0,-13.934 2.439,0 z m 19.196,0 0,13.934 c 0,2.131 -1.573,3.88 -3.579,3.88 -1.952,0 -3.633,-1.749 -3.633,-3.88 l 0,-13.934 2.44,0 0,13.934 c 0,0.765 0.543,1.421 1.193,1.421 0.65,0 1.139,-0.656 1.139,-1.421 l 0,-13.934 2.44,0 z m -26.353,-8.032 c 0,-4.809 1.735,-8.689 5.097,-11.257 3.307,-2.514 6.887,-2.787 8.243,-2.787 6.885,0 13.013,5.573 13.013,14.044 l 0,4.48 -2.44,0 0,-4.48 c 0,-6.996 -4.989,-11.585 -10.573,-11.585 -1.139,0 -4.067,0.217 -6.778,2.294 -2.712,2.077 -4.121,5.3 -4.121,9.291 l 0,4.48 -2.441,0 0,-4.48 z"
         style="fill:#ffffff;fill-opacity:1;fill-rule:nonzero;stroke:none"
         id="path30"
         inkscape:connector-curvature="0" /><path
         d="m 115.2979,57.877 0,13.771 c 0,2.131 -1.735,3.879 -3.849,3.879 -2.116,0 -3.85,-1.748 -3.85,-3.879 l 0,-13.771 2.44,0 0,13.771 c 0,0.764 0.651,1.42 1.41,1.42 0.758,0 1.41,-0.656 1.41,-1.42 l 0,-13.771 2.439,0 z m -7.699,-3.552 0,-14.699 c 0,-2.131 1.734,-3.88 3.85,-3.88 2.114,0 3.849,1.749 3.849,3.88 l 0,14.699 -2.439,0 0,-14.699 c 0,-0.765 -0.652,-1.421 -1.41,-1.421 -0.759,0 -1.41,0.656 -1.41,1.421 l 0,14.699 -2.44,0 z"
         style="fill:#ffffff;fill-opacity:1;fill-rule:nonzero;stroke:none"
         id="path34"
         inkscape:connector-curvature="0" /><path
         d="m 148.8774,46.5664 c 0,5.572 -3.796,9.78 -10.14,12.239 l -2.71,-7.266 c 3.036,-1.202 5.205,-2.787 5.205,-5.082 0,-2.35 -2.495,-3.662 -5.531,-3.662 -6.995,0 -7.971,3.662 -10.736,3.662 -2.006,0 -3.85,-1.695 -3.85,-3.88 0,-5.028 9.055,-7.487 14.586,-7.487 7.266,0 13.176,4.536 13.176,11.257 l 0,0.219 z m -23.261,9.836 c 1.735,-1.585 4.066,-2.787 7.048,-3.717 l 2.711,7.214 c -5.638,1.64 -5.747,3.88 -5.747,4.809 0,2.568 2.819,3.714 5.423,3.714 1.897,0 4.5,-0.874 6.994,-2.348 0.651,-0.383 1.301,-0.546 1.952,-0.546 2.007,0 3.85,1.584 3.85,3.88 0,1.31 -0.65,2.567 -1.843,3.277 -2.658,1.586 -6.724,3.496 -10.953,3.496 -7.429,0 -13.122,-4.917 -13.122,-11.473 0,-3.224 1.247,-6.121 3.687,-8.306"
         style="fill:#ffffff;fill-opacity:1;fill-rule:nonzero;stroke:none"
         id="path38"
         inkscape:connector-curvature="0" /><path
         d="m 179.6377,75.5273 c -2.115,0 -3.849,-1.749 -3.849,-3.88 l 0,-12.24 -4.936,0 0,-7.759 4.936,0 0,-12.021 c 0,-2.132 1.734,-3.881 3.849,-3.881 2.114,0 3.85,1.749 3.85,3.881 l 0,32.02 c 0,2.131 -1.736,3.88 -3.85,3.88 m -12.309,-16.12 -4.935,0 0,12.24 c 0,2.131 -1.734,3.88 -3.849,3.88 -2.115,0 -3.85,-1.749 -3.85,-3.88 l 0,-32.02 c 0,-2.132 1.735,-3.881 3.85,-3.881 2.115,0 3.849,1.749 3.849,3.881 l 0,12.021 4.935,0 0,7.759 z"
         style="fill:#ffffff;fill-opacity:1;fill-rule:nonzero;stroke:none"
         id="path42"
         inkscape:connector-curvature="0" /><path
         d="m 221.1875,41.0469 -12.2,31.967 c -0.596,1.53 -1.951,2.513 -3.578,2.513 -1.573,0 -3.037,-0.983 -3.579,-2.459 l -2.223,-5.901 c 1.735,-0.874 4.934,-3.662 6.778,-8.525 l 0.271,-0.656 c 0.976,-2.24 1.681,-4.917 2.006,-5.682 l 0.705,-1.803 -3.796,0 -2.981,-7.76 9.705,0 1.735,-4.48 c 0.597,-1.586 2.06,-2.514 3.579,-2.514 2.277,0 3.85,1.859 3.85,3.879 0,0.493 -0.109,0.929 -0.272,1.421 m -17.623,15.027 c -1.897,5.136 -3.849,6.885 -5.259,7.76 l -8.729,-22.787 c -0.163,-0.492 -0.271,-0.928 -0.271,-1.421 0,-2.02 1.572,-3.879 3.849,-3.879 1.573,0 2.982,0.928 3.579,2.459 l 6.831,17.868 z"
         style="fill:#ffffff;fill-opacity:1;fill-rule:nonzero;stroke:none"
         id="path46"
         inkscape:connector-curvature="0" /><path
         d="m 285.5278,42.8506 -13.285,0 0,-7.76 13.285,0 c 2.114,0 3.849,1.75 3.849,3.88 0,2.131 -1.735,3.88 -3.849,3.88 m -13.285,24.261 13.285,0 c 2.114,0 3.849,1.749 3.849,3.88 0,2.132 -1.735,3.881 -3.849,3.881 l -13.285,0 0,-7.761 z m -3.525,-15.956 13.068,0 c 2.169,0 3.904,1.749 3.904,3.88 0,2.186 -1.735,3.935 -3.904,3.935 l -13.068,0 0,15.902 -3.849,0 c -2.114,0 -3.85,-1.749 -3.85,-3.881 l 0,-32.021 c 0,-1.967 1.898,-3.88 3.85,-3.88 l 3.849,0 0,16.065 z"
         style="fill:#ffffff;fill-opacity:1;fill-rule:nonzero;stroke:none"
         id="path50"
         inkscape:connector-curvature="0" /><path
         d="m 252.165,54.873 c 2.007,2.131 3.037,5.408 3.037,8.469 0,4.919 -2.549,8.961 -7.429,10.874 -1.68,0.657 -3.632,0.657 -5.748,0.657 l -3.957,0 0,-7.869 3.686,0 c 2.929,0 6.019,-0.603 6.019,-4.1 0,-3.497 -3.09,-4.152 -6.019,-4.152 l -3.686,0 0,-7.868 2.873,0 c 4.717,0 7.862,0.491 11.224,3.989 m -4.934,-17.486 c 0.651,-1.421 1.898,-2.242 3.361,-2.242 2.278,0 3.634,1.968 3.634,3.88 l 0,0.382 c 0,0.438 -0.109,0.875 -0.326,1.312 l -3.796,8.416 c -2.168,-1.093 -4.608,-1.695 -7.374,-1.805 l 4.501,-9.943 z m -19.955,33.549 0,-31.911 c 0,-2.184 1.627,-3.934 3.687,-3.934 2.061,0 3.742,1.75 3.742,3.934 l 0,35.848 -3.742,0 c -2.06,0 -3.687,-1.749 -3.687,-3.937"
         style="fill:#ffffff;fill-opacity:1;fill-rule:nonzero;stroke:none"
         id="path54"
         inkscape:connector-curvature="0" /><path
         d="m 365.5732,64.0684 10.118,0 c 1.611,0 2.934,1.322 2.934,2.935 0,1.61 -1.323,2.932 -2.934,2.932 l -10.118,0 0,-5.867 z m -2.686,-21.27 c 0,-1.901 -1.402,-2.932 -2.932,-2.932 -1.486,0 -2.932,1.404 -2.932,2.932 l 0,24.205 c 0,1.61 1.321,2.932 2.932,2.932 l 2.932,0 0,-12.02 9.955,0 c 1.653,0 2.975,-1.322 2.975,-2.974 0,-1.611 -1.322,-2.932 -2.975,-2.932 l -9.955,0 0,-9.211 z"
         style="fill:#ffffff;fill-opacity:1;fill-rule:nonzero;stroke:none"
         id="path58"
         inkscape:connector-curvature="0" /><path
         d="m 407.2471,42.7988 c 0,-1.61 -1.322,-2.933 -2.933,-2.933 l -10.119,0 0,5.865 10.119,0 c 1.611,0 2.933,-1.321 2.933,-2.932 m -13.052,27.137 10.119,0 c 1.611,0 2.933,-1.323 2.933,-2.933 0,-1.612 -1.322,-2.934 -2.933,-2.934 l -10.119,0 0,5.867 z m -2.686,-30.07 -2.932,0 c -1.486,0 -2.932,1.446 -2.932,2.933 l 0,24.204 c 0,1.61 1.322,2.933 2.932,2.933 l 2.932,0 0,-12.021 9.954,0 c 1.652,0 2.975,-1.321 2.975,-2.973 0,-1.612 -1.323,-2.932 -2.975,-2.932 l -9.954,0 0,-12.144 z"
         style="fill:#ffffff;fill-opacity:1;fill-rule:nonzero;stroke:none"
         id="path62"
         inkscape:connector-curvature="0" /><path
         d="m 416.3311,61.9639 c 0,4.955 4.337,8.674 9.994,8.674 3.224,0 6.32,-1.446 8.344,-2.645 0.91,-0.537 1.405,-1.487 1.405,-2.478 0,-1.735 -1.405,-2.932 -2.932,-2.932 -0.497,0 -0.992,0.123 -1.487,0.412 -1.901,1.116 -3.883,1.779 -5.33,1.779 -1.98,0 -4.129,-0.869 -4.129,-2.81 0,-0.702 0.083,-2.395 4.379,-3.635 l -2.066,-5.452 c -2.272,0.702 -4.047,1.611 -5.37,2.81 -1.857,1.651 -2.808,3.84 -2.808,6.277 m 20.528,-13.88 c 0,-5.079 -4.502,-8.508 -10.037,-8.508 -4.213,0 -11.111,1.858 -11.111,5.66 0,1.652 1.403,2.932 2.933,2.932 2.106,0 2.85,-2.767 8.178,-2.767 2.314,0 4.214,0.992 4.214,2.767 0,1.734 -1.654,2.932 -3.966,3.842 l 2.066,5.493 c 4.832,-1.858 7.723,-5.04 7.723,-9.253 l 0,-0.166 z"
         style="fill:#ffffff;fill-opacity:1;fill-rule:nonzero;stroke:none"
         id="path66"
         inkscape:connector-curvature="0" /><path
         d="m 457.6328,61.3428 0,-18.586 c 0,-1.609 -1.321,-2.932 -2.934,-2.932 -1.609,0 -2.93,1.323 -2.93,2.932 l 0,18.586 5.864,0 z m 8.055,5.618 c 0,-1.609 -1.323,-2.932 -2.931,-2.932 l -16.069,0 c -1.612,0 -2.933,1.323 -2.933,2.932 0,1.611 1.321,2.933 2.933,2.933 l 16.069,0 c 1.608,0 2.931,-1.322 2.931,-2.933"
         style="fill:#ffffff;fill-opacity:1;fill-rule:nonzero;stroke:none"
         id="path70"
         inkscape:connector-curvature="0" /><g
         transform="scale(1,-1)"
         style="font-style:normal;font-weight:normal;font-size:32px;line-height:125%;font-family:sans-serif;letter-spacing:0px;word-spacing:0px;fill:#ffffff;fill-opacity:1;stroke:none;stroke-width:1px;stroke-linecap:butt;stroke-linejoin:miter;stroke-opacity:1"
         id="text4176"><path
           d="m 491.14499,-66.681364 0,24.528 c 0,1.68 1.344,3.024 3.024,3.024 l 3.024,0 0,-30.576 -3.024,0 c -1.68,0 -3.024,1.344 -3.024,3.024 z m 20.79,10.458 c -0.42,-0.42 -0.924,-0.798 -1.428,-1.134 0.672,-1.218 0.924,-2.478 0.924,-3.906 0,-3.36 -2.1,-6.468 -6.048,-7.938 -1.386,-0.504 -2.982,-0.504 -4.704,-0.504 l -0.714,0 0,6.048 2.058,0 c 1.806,0 3.36,0.21 3.36,2.31 0,2.1 -1.554,2.31 -3.36,2.31 l -2.058,0 0,6.048 2.94,0 c 2.562,0 5.292,1.008 5.292,3.906 0,2.898 -2.73,3.864 -5.292,3.864 l -2.898,0 0,6.09 2.142,0 c 4.788,0 9.786,-0.756 11.97,-6.93 0.378,-1.05 0.588,-2.184 0.588,-3.402 0,-2.604 -0.966,-4.956 -2.772,-6.762 z"
           style="font-style:normal;font-variant:normal;font-weight:bold;font-stretch:normal;font-size:42px;font-family:'ouishare stencil';-inkscape-font-specification:'ouishare stencil Bold';letter-spacing:5.44000006px;fill:#ffffff;fill-opacity:1"
           id="path4208" /><path
           d="m 543.52589,-49.167364 c -2.646,0 -2.814,4.074 -7.812,4.074 -1.596,0 -5.334,0 -5.334,-6.678 l 0,-1.302 -5.964,0 0,1.302 c 0,3.738 0.924,6.72 2.688,8.904 1.386,1.722 3.99,3.738 8.61,3.738 6.972,0 9.744,-4.494 10.332,-5.418 0.294,-0.462 0.462,-1.05 0.462,-1.638 0,-1.638 -1.344,-2.982 -2.982,-2.982 z m -13.146,-6.636 0,-1.386 c 0,-6.678 3.738,-6.678 5.334,-6.678 3.528,0 5.04,3.654 5.04,3.654 0.378,1.176 1.512,2.016 2.814,2.016 1.638,0 2.982,-1.344 2.982,-2.982 0,-0.84 -0.252,-2.184 -2.562,-4.83 -2.226,-2.52 -5.082,-3.822 -8.274,-3.822 -4.62,0 -7.224,2.016 -8.61,3.738 -1.764,2.184 -2.688,5.166 -2.688,8.904 l 0,1.386 5.964,0 z"
           style="font-style:normal;font-variant:normal;font-weight:bold;font-stretch:normal;font-size:42px;font-family:'ouishare stencil';-inkscape-font-specification:'ouishare stencil Bold';letter-spacing:5.44000006px;fill:#ffffff;fill-opacity:1"
           id="path4210" /><path
           d="m 575.37798,-54.081364 c 1.47,2.226 2.772,3.57 4.41,4.116 l 0,-16.674 c 0,-1.848 -1.512,-3.066 -3.024,-3.066 -1.554,0 -3.066,1.218 -3.066,3.066 l 0,10.038 1.68,2.52 z m -2.31,1.512 -10.08,-15.666 -0.168,-0.126 c -0.672,-0.588 -1.428,-1.134 -2.562,-1.134 -1.554,0 -3.15,1.176 -3.15,3.15 l 0,5.46 c 3.612,0.588 5.964,3.444 7.35,5.586 l 9.66,14.784 c 0.546,0.588 1.26,1.218 2.646,1.218 1.47,0 3.024,-1.134 3.024,-3.066 l 0,-4.746 c -3.276,-0.798 -5.292,-3.276 -6.72,-5.46 z m -10.878,-1.218 c -1.596,-2.52 -3.234,-3.78 -5.082,-4.284 l 0,15.876 c 0,1.89 1.512,3.066 3.066,3.066 1.512,0 3.024,-1.176 3.024,-3.066 l 0,-9.996 -1.008,-1.596 z"
           style="font-style:normal;font-variant:normal;font-weight:bold;font-stretch:normal;font-size:42px;font-family:'ouishare stencil';-inkscape-font-specification:'ouishare stencil Bold';letter-spacing:5.44000006px;fill:#ffffff;fill-opacity:1"
           id="path4212" /><path
           d="m 607.1648,-65.631364 c -0.42,0.588 -0.546,1.386 -0.546,1.764 0,1.638 1.176,2.94 2.646,2.94 2.184,0 2.688,-3.066 5.46,-3.066 2.394,0 3.822,2.016 3.822,4.158 0,1.512 -0.672,2.478 -1.554,3.612 -0.336,0.42 -9.156,11.004 -9.912,11.97 -0.336,0.42 -0.798,1.134 -0.798,2.142 0,1.47 1.092,2.982 2.73,2.982 l 0.588,0 c 3.864,-4.494 8.232,-9.072 12.18,-14.238 1.218,-1.596 2.31,-3.612 2.31,-6.468 0,-5.334 -3.486,-9.87 -9.324,-9.87 -4.074,0 -6.384,2.394 -7.602,4.074 z m 14.826,26.502 c 1.638,0 2.604,-1.512 2.604,-2.856 0,-1.386 -0.966,-2.856 -2.604,-2.856 l -4.998,0 c -1.68,1.89 -3.318,3.822 -4.956,5.712 l 9.954,0 z"
           style="font-style:normal;font-variant:normal;font-weight:bold;font-stretch:normal;font-size:42px;font-family:'ouishare stencil';-inkscape-font-specification:'ouishare stencil Bold';letter-spacing:5.44000006px;fill:#ffffff;fill-opacity:1"
           id="path4214" /><path
           d="m 643.25561,-44.841364 c -1.89,-0.42 -2.814,-2.268 -2.814,-4.284 l 0,-10.542 c 0,-1.638 0.924,-3.78 2.814,-4.326 l 0,-5.712 c -6.258,0.546 -8.274,6.426 -8.274,9.996 l 0,10.626 c 0,3.864 2.016,9.45 8.274,9.954 l 0,-5.712 z m 1.848,5.712 c 6.258,-0.504 8.274,-6.09 8.274,-9.954 l 0,-10.626 c 0,-3.57 -2.016,-9.45 -8.274,-9.996 l 0,5.712 c 1.89,0.546 2.814,2.688 2.814,4.326 l 0,10.542 c 0,2.016 -0.924,3.864 -2.814,4.284 l 0,5.712 z"
           style="font-style:normal;font-variant:normal;font-weight:bold;font-stretch:normal;font-size:42px;font-family:'ouishare stencil';-inkscape-font-specification:'ouishare stencil Bold';letter-spacing:5.44000006px;fill:#ffffff;fill-opacity:1"
           id="path4216" /><path
           d="m 667.95261,-68.697364 -5.292,5.334 c -0.714,0.714 -0.924,1.47 -0.924,2.226 0,1.722 1.218,2.898 2.688,2.898 1.89,0 2.436,-2.058 2.73,-1.974 l 0,18.018 c 0,1.848 1.344,3.066 2.772,3.066 1.428,0 2.814,-1.218 2.814,-3.066 l 0,-24.486 c 0,-1.722 -1.344,-3.024 -2.772,-3.024 -0.84,0 -1.47,0.462 -2.016,1.008 z"
           style="font-style:normal;font-variant:normal;font-weight:bold;font-stretch:normal;font-size:42px;font-family:'ouishare stencil';-inkscape-font-specification:'ouishare stencil Bold';letter-spacing:5.44000006px;fill:#ffffff;fill-opacity:1"
           id="path4218" /><path
           d="m 690.26415,-62.187364 0,-1.008 9.408,0 c 1.638,0 2.982,-1.344 2.982,-2.982 0,-1.638 -1.344,-2.982 -2.982,-2.982 l -12.39,0 c -1.638,0 -2.982,1.344 -2.982,2.982 l 0,6.888 c 1.638,-1.428 3.738,-2.478 5.964,-2.898 z m -5.964,6.342 0,0.63 c 0,1.554 1.26,2.982 2.982,2.982 0.588,0 1.176,-0.168 1.68,-0.504 0.42,-0.294 2.268,-1.344 3.738,-1.344 2.562,0 4.62,2.1 4.62,4.662 0,2.562 -2.058,4.62 -4.62,4.62 -1.302,0 -2.562,-0.546 -3.402,-1.554 -0.588,-0.672 -1.386,-1.008 -2.226,-1.008 -1.68,0 -3.024,1.47 -3.024,3.024 0,3.318 5.544,5.502 8.652,5.502 5.838,0 10.584,-4.872 10.584,-10.584 0,-3.486 -1.176,-5.502 -2.436,-7.056 -2.73,-3.402 -6.426,-3.57 -8.106,-3.57 -3.528,0 -6.51,1.722 -8.442,4.2 z"
           style="font-style:normal;font-variant:normal;font-weight:bold;font-stretch:normal;font-size:42px;font-family:'ouishare stencil';-inkscape-font-specification:'ouishare stencil Bold';letter-spacing:5.44000006px;fill:#ffffff;fill-opacity:1"
           id="path4220" /></g></g></g></svg>